<svg width="51" height="14" viewBox="0 0 51 14" fill="none" xmlns="http://www.w3.org/2000/svg">
<path d="M6.50006 0.00192261H2.61098C2.34485 0.00192261 2.11852 0.195268 2.077 0.45799L0.504083 10.4306C0.472806 10.6274 0.625207 10.8048 0.824808 10.8048H2.68149C2.94763 10.8048 3.17396 10.6115 3.21547 10.3482L3.63969 7.6584C3.68063 7.39511 3.90753 7.20176 4.17309 7.20176H5.40425C7.96607 7.20176 9.4446 5.96208 9.83072 3.50545C10.0047 2.43068 9.83811 1.58622 9.33485 0.994808C8.78211 0.345395 7.80173 0.00192261 6.50006 0.00192261ZM6.94874 3.64421C6.73606 5.03971 5.66981 5.03971 4.63883 5.03971H4.05197L4.46368 2.43352C4.48813 2.27601 4.62461 2.16 4.78384 2.16H5.05282C5.75511 2.16 6.41761 2.16 6.75994 2.56034C6.96409 2.79918 7.02664 3.15402 6.94874 3.64421Z" fill="#253B80"/>
<path d="M18.125 3.59791H16.2626C16.1039 3.59791 15.9669 3.71392 15.9424 3.87143L15.86 4.39233L15.7298 4.20353C15.3266 3.61838 14.4275 3.42276 13.5302 3.42276C11.4722 3.42276 9.71445 4.98146 9.37212 7.16797C9.19413 8.25867 9.44718 9.3016 10.0659 10.0289C10.6334 10.6977 11.4455 10.9763 12.4116 10.9763C14.0698 10.9763 14.9894 9.91006 14.9894 9.91006L14.9063 10.4275C14.8751 10.6254 15.0275 10.8029 15.2259 10.8029H16.9035C17.1702 10.8029 17.3954 10.6095 17.4375 10.3462L18.444 3.97209C18.4758 3.7759 18.324 3.59791 18.125 3.59791ZM15.529 7.22256C15.3493 8.28653 14.5049 9.00077 13.4278 9.00077C12.887 9.00077 12.4548 8.82733 12.1773 8.49864C11.9021 8.17223 11.7975 7.70763 11.885 7.19015C12.0528 6.13528 12.9115 5.39773 13.972 5.39773C14.5009 5.39773 14.9308 5.57344 15.214 5.90497C15.4978 6.23991 15.6103 6.70736 15.529 7.22256Z" fill="#253B80"/>
<path d="M28.0437 3.5979H26.1722C25.9937 3.5979 25.8259 3.68661 25.7247 3.83503L23.1435 7.63711L22.0494 3.98345C21.9806 3.75485 21.7697 3.5979 21.5308 3.5979H19.6918C19.4683 3.5979 19.313 3.81627 19.3841 4.02667L21.4455 10.0761L19.5075 12.8119C19.3551 13.0275 19.5087 13.3237 19.7719 13.3237H21.6411C21.8186 13.3237 21.9846 13.2373 22.0853 13.0917L28.3098 4.10685C28.4588 3.8919 28.3059 3.5979 28.0437 3.5979Z" fill="#253B80"/>
<path d="M34.2403 0.000549316H30.3506C30.0851 0.000549316 29.8588 0.193895 29.8172 0.456617L28.2443 10.4293C28.213 10.626 28.3654 10.8034 28.5639 10.8034H30.5599C30.7453 10.8034 30.904 10.6681 30.933 10.4838L31.3794 7.65702C31.4203 7.39373 31.6472 7.20039 31.9128 7.20039H33.1434C35.7057 7.20039 37.1837 5.9607 37.5704 3.50408C37.745 2.42931 37.5772 1.58484 37.0739 0.993434C36.5218 0.344022 35.542 0.000549316 34.2403 0.000549316ZM34.689 3.64283C34.4769 5.03833 33.4106 5.03833 32.3791 5.03833H31.7928L32.2051 2.43215C32.2295 2.27463 32.3648 2.15862 32.5246 2.15862H32.7936C33.4954 2.15862 34.1584 2.15862 34.5007 2.55896C34.7049 2.7978 34.7669 3.15265 34.689 3.64283Z" fill="#179BD7"/>
<path d="M45.8642 3.59791H44.003C43.8432 3.59791 43.7073 3.71392 43.6834 3.87143L43.601 4.39233L43.4702 4.20353C43.067 3.61838 42.1685 3.42276 41.2712 3.42276C39.2132 3.42276 37.456 4.98146 37.1137 7.16797C36.9362 8.25867 37.1882 9.3016 37.8069 10.0289C38.3755 10.6977 39.1864 10.9763 40.1526 10.9763C41.8108 10.9763 42.7303 9.91006 42.7303 9.91006L42.6473 10.4275C42.616 10.6254 42.7684 10.8029 42.968 10.8029H44.645C44.9106 10.8029 45.1369 10.6095 45.1784 10.3462L46.1855 3.97209C46.2162 3.7759 46.0638 3.59791 45.8642 3.59791ZM43.2683 7.22256C43.0897 8.28653 42.2441 9.00077 41.1671 9.00077C40.6274 9.00077 40.1941 8.82733 39.9166 8.49864C39.6414 8.17223 39.5379 7.70763 39.6243 7.19015C39.7932 6.13528 40.6507 5.39773 41.7113 5.39773C42.2402 5.39773 42.6701 5.57344 42.9533 5.90497C43.2382 6.23991 43.3508 6.70736 43.2683 7.22256Z" fill="#179BD7"/>
<path d="M48.0598 0.274095L46.4636 10.4293C46.4323 10.626 46.5847 10.8035 46.7831 10.8035H48.3879C48.6546 10.8035 48.8809 10.6101 48.9219 10.3468L50.4959 0.374749C50.5272 0.177991 50.3748 0 50.1764 0H48.3794C48.2207 0.000568663 48.0842 0.116576 48.0598 0.274095Z" fill="#179BD7"/>
</svg>
